<?xml version="1.0" standalone="no"?>
<!DOCTYPE svg PUBLIC "-//W3C//DTD SVG 20010904//EN"
 "http://www.w3.org/TR/2001/REC-SVG-20010904/DTD/svg10.dtd">
<svg version="1.0" xmlns="http://www.w3.org/2000/svg"
 width="700.000000pt" height="227.000000pt" viewBox="0 0 700.000000 227.000000"
 preserveAspectRatio="xMidYMid meet">

<g transform="translate(0.000000,227.000000) scale(0.100000,-0.100000)"
fill="#000000" stroke="none">
<path d="M4995 1851 c-143 -41 -287 -159 -348 -283 -63 -132 -75 -303 -28
-433 77 -215 288 -365 515 -365 96 0 169 17 263 62 118 56 212 47 248 -22 l16
-30 219 0 c230 0 345 11 416 38 68 27 130 76 160 128 24 41 29 62 32 139 4 78
1 99 -18 143 -26 59 -83 116 -146 143 -24 11 -112 35 -196 54 -84 20 -174 42
-199 50 -123 41 -123 148 -1 189 36 13 94 16 274 16 l228 0 0 95 0 95 -232 0
c-254 0 -330 -10 -414 -53 -27 -14 -63 -40 -81 -59 -35 -37 -72 -111 -73 -145
0 -33 -13 -28 -35 13 -27 51 -130 144 -201 181 -116 62 -276 80 -399 44z m293
-211 c102 -54 167 -143 191 -262 13 -59 4 -146 -19 -187 -15 -28 -14 -29 33
-24 23 2 71 0 105 -5 63 -9 64 -9 74 17 5 14 12 66 15 114 l6 88 26 -24 c52
-49 150 -86 296 -112 135 -24 218 -51 245 -80 47 -50 23 -127 -54 -168 -37
-20 -59 -22 -220 -25 -165 -3 -181 -2 -205 16 -53 39 -112 62 -184 74 -108 16
-174 5 -276 -50 -77 -41 -94 -46 -168 -50 -75 -4 -87 -2 -145 25 -81 38 -143
101 -182 183 -27 57 -31 76 -31 150 0 101 27 171 95 244 79 85 155 118 266
113 56 -3 82 -10 132 -37z"/>
<path d="M765 1549 c-101 -13 -187 -79 -234 -178 -25 -54 -26 -63 -29 -283
l-4 -228 85 0 86 0 3 214 c3 235 5 240 71 290 32 24 105 26 140 4 23 -16 24
-15 36 17 6 18 25 52 41 76 l29 44 -36 19 c-45 23 -123 33 -188 25z"/>
<path d="M1218 1549 c-98 -15 -179 -76 -230 -171 -22 -41 -23 -55 -26 -280
l-3 -238 85 0 86 0 0 213 c0 237 5 259 72 293 66 34 151 12 188 -49 18 -29 20
-51 20 -244 l0 -213 86 0 85 0 -3 238 -3 237 -29 53 c-66 119 -194 182 -328
161z"/>
<path d="M1920 1531 c-121 -39 -205 -129 -236 -251 -19 -74 -15 -157 12 -235
24 -68 120 -163 189 -188 79 -27 170 -32 245 -13 59 15 161 69 160 85 -1 3
-20 28 -43 54 l-43 48 -59 -31 c-51 -27 -68 -31 -115 -28 -73 6 -126 33 -158
81 -23 35 -28 53 -30 128 -3 70 0 95 16 132 24 55 79 94 143 103 88 12 179
-53 179 -128 l0 -28 -140 0 -140 0 0 -65 0 -65 226 0 226 0 -4 88 c-7 139 -58
231 -160 287 -46 26 -65 30 -148 32 -52 1 -106 -1 -120 -6z"/>
<path d="M4158 1506 c-92 -33 -139 -94 -140 -180 -1 -118 74 -183 248 -213 96
-16 124 -27 124 -46 -1 -44 -50 -57 -222 -57 l-138 0 0 -81 0 -81 183 4 c181
3 184 3 242 33 75 38 105 89 105 178 0 123 -61 176 -235 207 -107 19 -135 31
-135 56 0 27 41 34 189 34 l151 0 0 80 0 80 -167 0 c-114 -1 -180 -5 -205 -14z"/>
<path d="M2673 1482 c-118 -42 -199 -137 -223 -263 -22 -112 18 -246 96 -324
20 -21 67 -51 103 -68 59 -28 76 -31 156 -31 119 0 189 27 260 98 74 74 96
129 105 256 4 58 13 117 20 132 16 35 66 58 124 58 l46 0 0 70 0 70 -82 0
c-107 0 -150 -13 -200 -58 -59 -53 -71 -89 -78 -227 -7 -140 -22 -182 -83
-226 -135 -98 -301 5 -300 186 1 173 170 270 305 174 24 -18 28 -18 28 -4 0
21 27 74 52 101 l19 21 -53 24 c-72 32 -219 38 -295 11z"/>
<path d="M3430 1396 l0 -74 139 -4 c154 -3 181 -14 181 -68 0 -27 -1 -27 -82
-33 -165 -13 -255 -54 -290 -134 -40 -90 -2 -190 89 -234 40 -20 64 -24 138
-24 79 0 155 16 155 32 0 3 -10 27 -22 54 -17 37 -27 47 -38 42 -8 -4 -43 -8
-76 -8 -72 0 -104 21 -104 66 0 53 49 80 171 94 l56 7 7 -59 c18 -152 78 -223
191 -223 l45 0 0 59 c0 54 -2 59 -25 65 -41 10 -52 48 -57 201 -6 188 -34 252
-132 296 -34 15 -66 19 -193 19 l-153 0 0 -74z"/>
<path d="M2445 723 c34 -204 182 -323 384 -311 179 11 318 134 338 298 l6 50
-87 0 c-75 0 -86 -2 -86 -17 0 -37 -22 -93 -47 -123 -105 -125 -303 -71 -331
91 l-8 44 -87 3 -88 3 6 -38z"/>
</g>
</svg>
